<svg xmlns="http://www.w3.org/2000/svg" xmlns:xlink="http://www.w3.org/1999/xlink" width="200" zoomAndPan="magnify" viewBox="0 0 150 89.999999" height="120" preserveAspectRatio="xMidYMid meet" version="1.0"><defs><clipPath id="fc24e41fa4"><path d="M 11.492188 40 L 138.242188 40 L 138.242188 58.5625 L 11.492188 58.5625 Z M 11.492188 40 " clip-rule="nonzero"/></clipPath><clipPath id="a6babb130a"><path d="M 115 24.0625 L 129 24.0625 L 129 37 L 115 37 Z M 115 24.0625 " clip-rule="nonzero"/></clipPath></defs><g clip-path="url(#fc24e41fa4)"><path fill="#000000" d="M 44.523438 41.511719 C 44.3125 41.085938 43.753906 40.734375 43.28125 40.734375 L 42.324219 40.734375 C 41.851562 40.734375 41.300781 41.089844 41.097656 41.519531 L 33.492188 57.617188 C 33.28125 58.042969 33.507812 58.347656 33.980469 58.347656 L 35.738281 58.347656 C 36.433594 58.347656 36.75 58.027344 36.9375 57.636719 C 37.128906 57.246094 37.546875 56.394531 37.625 56.21875 C 37.734375 55.984375 38.070312 55.839844 38.539062 55.839844 L 46.726562 55.84375 C 47.195312 55.847656 47.5 55.9375 47.640625 56.21875 C 47.730469 56.402344 48.148438 57.167969 48.355469 57.585938 C 48.5625 58.003906 48.910156 58.347656 49.585938 58.347656 L 52.136719 58.347656 C 52.609375 58.347656 52.8125 57.984375 52.644531 57.648438 C 52.472656 57.3125 44.523438 41.511719 44.523438 41.511719 Z M 39.71875 53.355469 C 39.246094 53.355469 39.023438 53 39.222656 52.566406 L 42.21875 46.0625 C 42.417969 45.628906 42.742188 45.632812 42.9375 46.066406 L 45.855469 52.570312 C 46.046875 53.003906 45.824219 53.359375 45.351562 53.359375 Z M 103.296875 41.636719 L 103.296875 57.605469 C 103.296875 58.046875 103.683594 58.347656 104.15625 58.347656 L 106.234375 58.347656 C 106.703125 58.347656 107.089844 58.042969 107.089844 57.566406 L 107.089844 41.605469 C 107.089844 41.125 106.785156 40.738281 106.316406 40.738281 L 104.15625 40.738281 C 103.683594 40.734375 103.296875 41.03125 103.296875 41.636719 Z M 68.464844 51.640625 C 68.195312 51.25 68.34375 50.816406 68.792969 50.679688 C 68.792969 50.679688 70.589844 50.136719 71.449219 49.355469 C 72.308594 48.570312 72.742188 47.441406 72.742188 45.96875 C 72.742188 45.003906 72.574219 44.195312 72.246094 43.535156 C 71.914062 42.878906 71.4375 42.339844 70.820312 41.929688 C 70.203125 41.515625 69.464844 41.210938 68.601562 41.019531 C 67.742188 40.832031 66.578125 40.777344 66.578125 40.777344 C 66.007812 40.75 65.4375 40.738281 64.863281 40.734375 L 56.234375 40.734375 C 55.761719 40.734375 55.375 41.125 55.375 41.605469 L 55.375 57.566406 C 55.375 58.042969 55.761719 58.347656 56.234375 58.347656 L 58.277344 58.347656 C 58.746094 58.347656 59.132812 58.042969 59.132812 57.566406 C 59.132812 57.566406 59.132812 51.214844 59.136719 51.214844 C 59.140625 51.214844 59.144531 51.214844 59.144531 51.207031 C 59.144531 51.203125 63.015625 51.199219 63.015625 51.199219 C 63.488281 51.199219 64.09375 51.519531 64.367188 51.910156 L 68.386719 57.644531 C 68.761719 58.152344 69.117188 58.347656 69.585938 58.347656 L 72.257812 58.347656 C 72.730469 58.347656 72.804688 57.898438 72.640625 57.664062 C 72.476562 57.429688 68.464844 51.640625 68.464844 51.640625 Z M 66.839844 48.398438 C 66.3125 48.519531 65.714844 48.546875 65.714844 48.546875 C 65.144531 48.570312 64.574219 48.582031 64.003906 48.582031 L 60 48.582031 C 59.53125 48.582031 59.144531 48.191406 59.144531 47.714844 L 59.144531 44.480469 C 59.144531 44.003906 59.53125 43.613281 60 43.613281 L 64.003906 43.613281 C 64.472656 43.613281 65.246094 43.628906 65.714844 43.652344 C 65.714844 43.652344 66.3125 43.675781 66.839844 43.796875 C 67.367188 43.921875 67.789062 44.09375 68.09375 44.316406 C 68.402344 44.542969 68.625 44.804688 68.757812 45.105469 C 68.886719 45.410156 68.953125 45.738281 68.953125 46.097656 C 68.953125 46.453125 68.886719 46.785156 68.757812 47.089844 C 68.625 47.390625 68.402344 47.652344 68.09375 47.878906 C 67.789062 48.101562 67.367188 48.277344 66.839844 48.398438 Z M 128.816406 40.734375 C 128.347656 40.734375 127.964844 41.050781 127.964844 41.511719 L 127.96875 51.71875 C 127.96875 52.199219 127.703125 52.308594 127.375 51.964844 L 117.285156 41.359375 C 116.957031 41.015625 116.476562 40.734375 115.832031 40.734375 L 113.933594 40.734375 C 113.335938 40.734375 113.074219 41.058594 113.074219 41.386719 L 113.074219 57.710938 C 113.074219 58.039062 113.382812 58.347656 113.855469 58.347656 L 115.753906 58.347656 C 116.226562 58.347656 116.554688 58.089844 116.554688 57.648438 C 116.554688 57.429688 116.566406 46.894531 116.566406 46.894531 C 116.566406 46.414062 116.832031 46.308594 117.15625 46.652344 L 127.679688 57.734375 C 128.015625 58.070312 128.421875 58.347656 129.144531 58.347656 L 130.570312 58.347656 C 131.042969 58.347656 131.429688 57.957031 131.429688 57.480469 L 131.429688 41.605469 C 131.429688 41.125 131.042969 40.738281 130.570312 40.738281 L 128.816406 40.738281 Z M 87.671875 50.691406 C 87.445312 51.109375 87.066406 51.105469 86.84375 50.6875 L 81.910156 41.511719 C 81.699219 41.085938 81.269531 40.734375 80.671875 40.734375 L 77.996094 40.734375 C 77.523438 40.734375 77.136719 41.125 77.136719 41.605469 L 77.136719 57.542969 C 77.136719 58.023438 77.445312 58.347656 77.996094 58.347656 L 79.65625 58.347656 C 80.128906 58.347656 80.46875 58.046875 80.46875 57.585938 C 80.46875 57.367188 80.476562 45.992188 80.496094 45.992188 C 80.511719 45.992188 86.652344 57.582031 86.652344 57.582031 C 86.875 58.003906 87.417969 58.003906 87.644531 57.585938 C 87.644531 57.585938 93.835938 46.023438 93.855469 46.023438 C 93.871094 46.023438 93.867188 57.253906 93.867188 57.585938 C 93.867188 58.046875 94.230469 58.347656 94.703125 58.347656 L 96.617188 58.347656 C 97.089844 58.347656 97.472656 58.109375 97.472656 57.480469 L 97.472656 41.605469 C 97.472656 41.363281 97.390625 41.160156 97.222656 40.992188 C 97.054688 40.820312 96.851562 40.738281 96.617188 40.734375 L 94.050781 40.734375 C 93.398438 40.734375 93.003906 41.074219 92.769531 41.488281 Z M 11.621094 49.527344 C 11.621094 58.125 20.304688 58.5625 22.046875 58.5625 C 27.808594 58.5625 30.246094 56.984375 30.347656 56.917969 C 30.707031 56.710938 31.144531 56.292969 31.144531 55.515625 L 31.144531 49.578125 C 31.144531 49.304688 31.046875 49.070312 30.859375 48.875 C 30.667969 48.683594 30.4375 48.585938 30.164062 48.585938 L 22.925781 48.585938 C 22.382812 48.585938 22.027344 49.03125 22.027344 49.578125 L 22.027344 50.191406 C 22.027344 50.738281 22.382812 51.1875 22.925781 51.1875 L 27.113281 51.1875 C 27.316406 51.1875 27.488281 51.257812 27.632812 51.402344 C 27.773438 51.546875 27.84375 51.722656 27.847656 51.929688 C 27.847656 51.929688 27.84375 54.53125 27.84375 54.695312 C 27.015625 55.039062 23.246094 56.152344 20.21875 55.421875 C 15.828125 54.355469 15.484375 50.6875 15.484375 49.585938 C 15.484375 48.664062 15.757812 44.042969 21.152344 43.574219 C 25.519531 43.195312 28.394531 44.980469 28.421875 45 C 28.933594 45.269531 29.464844 45.078125 29.75 44.527344 C 29.753906 44.523438 30.296875 43.40625 30.296875 43.40625 C 30.523438 42.949219 30.445312 42.472656 29.894531 42.09375 C 29.859375 42.074219 26.796875 40.394531 22.046875 40.394531 C 11.914062 40.394531 11.621094 48.589844 11.621094 49.527344 Z M 134.152344 56.15625 L 133.40625 56.15625 L 133.40625 55.882812 L 135.222656 55.882812 L 135.222656 56.15625 L 134.472656 56.15625 L 134.472656 58.367188 L 134.152344 58.367188 Z M 137.742188 57.277344 C 137.722656 56.929688 137.703125 56.507812 137.703125 56.203125 L 137.695312 56.203125 C 137.597656 56.519531 137.496094 56.835938 137.386719 57.148438 L 136.953125 58.351562 L 136.710938 58.351562 L 136.3125 57.167969 C 136.195312 56.816406 136.101562 56.5 136.03125 56.203125 L 136.023438 56.203125 C 136.015625 56.570312 136 56.9375 135.976562 57.300781 L 135.910156 58.367188 L 135.609375 58.367188 L 135.78125 55.882812 L 136.183594 55.882812 L 136.605469 57.082031 C 136.695312 57.359375 136.777344 57.636719 136.851562 57.921875 L 136.859375 57.921875 C 136.921875 57.671875 137.011719 57.398438 137.121094 57.082031 L 137.558594 55.882812 L 137.960938 55.882812 L 138.113281 58.367188 L 137.800781 58.367188 Z M 137.742188 57.277344 " fill-opacity="1" fill-rule="nonzero"/></g><g clip-path="url(#a6babb130a)"><path fill="#007cc2" d="M 127.859375 36.335938 L 116.484375 36.335938 C 116.070312 36.335938 115.710938 36.125 115.503906 35.757812 C 115.296875 35.394531 115.296875 34.972656 115.503906 34.609375 L 121.191406 24.636719 C 121.398438 24.273438 121.753906 24.0625 122.171875 24.0625 C 122.589844 24.0625 122.945312 24.273438 123.15625 24.636719 L 128.839844 34.609375 C 129.050781 34.976562 129.050781 35.394531 128.839844 35.757812 C 128.632812 36.125 128.273438 36.335938 127.859375 36.335938 Z M 127.859375 36.335938 " fill-opacity="1" fill-rule="nonzero"/></g></svg>